<svg version="1.2" xmlns="http://www.w3.org/2000/svg" viewBox="0 0 136 118" width="136" height="118"><style>.a{fill:#fff}</style><path fill-rule="evenodd" class="a" d="m14.5 1h79c6.9 0 12.5 5.6 12.5 12.5 0 6.9-5.6 12.5-12.5 12.5h-79c-6.9 0-12.5-5.6-12.5-12.5 0-6.9 5.6-12.5 12.5-12.5z"/><path fill-rule="evenodd" class="a" d="m40.5 46h81c6.9 0 12.5 5.6 12.5 12.5 0 6.9-5.6 12.5-12.5 12.5h-81c-6.9 0-12.5-5.6-12.5-12.5 0-6.9 5.6-12.5 12.5-12.5z"/><path fill-rule="evenodd" class="a" d="m14.5 91h79c6.9 0 12.5 5.6 12.5 12.5 0 6.9-5.6 12.5-12.5 12.5h-79c-6.9 0-12.5-5.6-12.5-12.5 0-6.9 5.6-12.5 12.5-12.5z"/></svg>